<mxfile host="app.diagrams.net" modified="2021-10-11T06:34:50.280Z" agent="5.0 (Windows NT 10.0; Win64; x64) AppleWebKit/537.36 (KHTML, like Gecko) Chrome/94.0.4606.81 Safari/537.36" etag="dF8A7IQw1H-PqR7R13GZ" version="15.5.0" type="github">
  <diagram id="7Xdwr7SbGDI5ZAO2BmQT" name="Page-1">
    <mxGraphModel dx="1255" dy="461" grid="1" gridSize="10" guides="1" tooltips="1" connect="1" arrows="1" fold="1" page="1" pageScale="1" pageWidth="827" pageHeight="1169" math="0" shadow="0">
      <root>
        <mxCell id="0" />
        <mxCell id="1" parent="0" />
        <mxCell id="QUKQrDG_E3J86xNQLUYg-4" value="&lt;font face=&quot;Times New Roman&quot; style=&quot;font-size: 14px&quot;&gt;rPPG Signals&lt;/font&gt;" style="text;whiteSpace=wrap;html=1;" vertex="1" parent="1">
          <mxGeometry x="40" y="370" width="100" height="30" as="geometry" />
        </mxCell>
        <mxCell id="QUKQrDG_E3J86xNQLUYg-8" value="" style="shape=image;verticalLabelPosition=bottom;labelBackgroundColor=#ffffff;verticalAlign=top;aspect=fixed;imageAspect=0;image=data:image/png,iVBORw0KGgoAAAANSUhEUgAAAV0AAADnCAYAAAC9roUQAAAABHNCSVQICAgIfAhkiAAAAAlwSFlzAAALEgAACxIB0t1+/AAAADh0RVh0U29mdHdhcmUAbWF0cGxvdGxpYiB2ZXJzaW9uMy4yLjIsIGh0dHA6Ly9tYXRwbG90bGliLm9yZy+WH4yJAAAZ/ElEQVR4nO3dd3RVZdYG8IcQQu8ICILSVLBQDCIhSAtFcaRKEWVEAZcCYgFFRz9RcUBsYEGkV0EEQXoR6UVRAWkyoPTeW4AQbr4/nmEFHUrKvWefc+7zW8t1Mq4Z7jMoO2/2ed/9ZkhKSkqCiIg4IsI6gIhIOFHRFRFxkIquiIiDVHRFRBykoisi4iAVXRERB6noiog4SEVXRMRBKroiIg5S0RURcZCKroiIg1R0RUQcpKIrIuIgFV0REQdFWgeQq1uyBJgxA8ifHyhaFDhzBihRAqhQAShQwDqdiKSFiq6LHD0KfPEFMHEisGEDcOHC1f+7kZFA7dpA375A+fLOZRSR9MmgIebuMHs28PDDyYW2QAGgenWgQwegWjVgzx6uev/zH2D7dmDVKuD4cSBDBqBxY/734uKATJlM/2+IyHWo6BqLjwdeew3o3x+49Vbg0UeBLl2AfPmu/7+dMweYPBmYNAk4fJir3x49gHfeCX1uEUkbFV1DixcDDz7IXu0zzwAffghkzZr6X+f8ebYZ3n2XXxcsCIwfD9SqFfzMIpI+KrpGuncHPviAX7/4IgtuesXHAy1bAtOn8z/HxQFTp6atkItIaKjoGrhUcLNnB2bOBO6/P7i//s8/A82aATt3AiVLAqNHAzExwf0MEUkbFV2HrVkDVKoEZMsG7N0L5MoVus+aP58v2HbsYKth5kwgKip0nyci16ei66ATJ4DKlbk1bNYsfu3EZ0ZHA1u3AnnysBBXqhT6zxWRK9OJNIckJrLH+uef3HHgRMEFgNy5gc2bgXbtuMUsOhro2dOZzxaR/6Wi65B69dhr7dCB+2+dFBEBDBvGfb6ZMwNvvQW0bctvBCLiLLUXHNCzJwtdyZLAli0sglaOHweaN2eboWZNYMwYHjEWEWeo6IbY0qVc2WbNCuzenbJDD04YNYqr7osXgc8/B55+2jqRSHhQ0Q2x4sWBXbs4vCY21jrNX02cCLRuzTZDs2bAhAm2q3CRcKCiG0IrVwJVqwINGyYfWHCbHTuAKlWAAwf4DeKnn4BChaxTifiXim6IJCWxrbB1K//KkcM60dUlJvI48rx5LLiLF3MOhIgEn36YDJEePYBly4A33nB3wQU4KGfuXKBfP045q1wZ+Oor61Qi/qSVbgicPg3kzQtkzMjDCZkzWydKuZ07OWJy7VrgvvuABQuALFmsU4n4h1a6IXBpD+zrr3ur4ALs6y5aBJQty570jTcCv/5qnUrEP7TSDbJt24BSpbjSPXTI27sBOnQAhgzhoPSePYH/+z/rRCLe5+GS4E6PPMKXaAMHervgAsDgwcC0aVytv/km0K0bkJBgnUrE27TSDaJt2/jW/557+KO5Xxw9Crz0EjBiBC/F7NcPqFHDOpWIN3l8LeYuffvy5dmkSdZJgitfPmD4cB6eWL+ex4fbtAECAetkIt6jlW6Q7NjBXm6jRv4rupdbupS7G44dYzGeOpUXZ4pIymilGyRdu3KOQbNm1klCKzaWl2C2bs22Q2wse7361i2SMlrpBkFiIgfaZM0KnDxpncY5S5fyxeH+/UDt2rznrUIF61Qi7qaVbhD06sXC266ddRJnxcbyyqEvvuCs4IoVWXS3bbNOJuJeWukGQYEC7HGeOsW7z8LRtm3AQw8BGzdyX2/Llnz5ptNsIn+llW46bdoEHDkC1K8fvgUXAEqUADZsAL7+mpdtjh/PAyJDh2qXg8jlVHTTacAA3rA7YoR1Endo0YIv2Lp14/a59u3ZcvjoIx2sEAFUdNNl924ek23RAihY0DqNe0REAO+/z6uBxowBzp3j4YqcOYFOnYD4eOuEInZUdNPh+edZUOrXt07iTpGRPESxfj3w3HPs9Q4YwOJbo4YG6Uh40ou0NEpMZA83KoqjHOX6EhN5QeeXX3IYUIYMPGjRti1fwkVFWScUCT2tdNPovfc48LttW+sk3hEZCbzzDnDwIPf4vvwysHw5D5RkzcotZ4MH68Wb+JtWumlUtCiwbx8PQ7j9Zgg3O3+ec4fHjuXvJ8AXcNWqsS8cHe39aW0il1PRTYPDh4EbbuBb+dWrrdP4x86dPGgyZQp/j5OSOES9QAGgeXP20HPlsk4pkj4qumkwYgRPn82fz+OvEnxHjgAzZ3L3w9y5yX+/aFG+uOzWjbdbiHiNim4a1K3LE1hbtvBlkITW8ePAJ5/wwMXmzck933vvZRuicmWegFMbQrxARTeVfvsNKF+eU7Z0Y67zAgHgm2943Hju3ORh8Rkz8p/Lk0/ymiHthBC3UtFNpWbNgG+/5TU2Dz1knUY2bAA++ICtiIMH+fciIoCnnuIe4erVtQIWd1HRTaUcObja0qkq99mzhzseFi1i6+fMGW5FK18e6NGDA+ZFrGkNkAo//MA/yLVqWSeRKylalPe3rV4NHDjAKWc5crAF0bgxD7M89hh3RohY0Uo3FeLiuGNhxQrgvvus00hKrV/P24xnzuSx7WzZgGef5RyIW26xTifhRkU3hZKS+Ac0QwZg+3brNJIWgQBnP8yfz558IAAULgy8/TanoYk4Qe2FFPrtN27ef/VV6ySSVhERQOfOwOTJ3PIXF8erhjp04GGXoUOtE0o40Eo3hVq04K6FAweA/Pmt00iw7N/Pgy5z5iT/NDNunNpHEjoquimQmMhrZ/LnZ9EV/7lUfJct47VLDzzAGcB16lgnE79ReyEFBg7k9erNm1snkVApXBiYNYsXbfbqBXz/PdsPVavy74kEi1a6KXDHHTwBtW8f/3CK//36K1tKf/zBXnC7dvzmGxlpnUy8TkX3OhITgcyZgSJFgF27rNOI04YPB7p04f7swoWBBQuA22+3TiVepvbCdUyezK1FOvIbntq148Cd9u2Bs2c5zrNnT+73FUkLFd3rWLuWP16+/rp1ErESGckbLX7/HXjwQV45VKAAvyGLpJbaC9dRvjyQJw/P84skJXFXQ79+/DouDpgxQ1PNJOW00r2GZcuSRzmKADyR+NFHnG5WrBh3ORQsCPzyi3Uy8QoV3Wvo14/Phg1tc4j7lC3LE4odOvCevLg4YOpU61TiBWovXEOBAvwDlZBgnUTcbONGTi9bvRqIjeVchzx5rFOJW2mlexV79vCeLrUW5HrKlePkuUaNeLV8kSLAwoXWqcStVHSv4uOP+Wzb1jaHeEPmzLzF+I03uJ2sdm2gd2/rVOJGai9cRb16XK2cPMm5CyIp9cMP3Fp2/jzQtCkwcaIuMJVkWulewcWLPAbasqUKrqRe7dqcuXzzzZxM16oVT7SJACq6VzR9Ovu5//iHdRLxqsKFObP3vfe40i1dmv1eEbUXrqBKFeCnn/gyrUgR6zTidePG8WbiDBmAIUN4tFjCl4ruFWTOzAsNjxyxTiJ+MX060KQJByh17w707WudSKyovfA38+dzX27NmtZJxE8eeghYs4bfzN9/n9vLtNwJTyq6f/Ppp3x27WqbQ/znjjuAHTt4fHjqVOCZZ7jylfCi9sLf5M3LEX4a3SehcvEip9b16QPExHBgjk6whQ+tdC9z8iTvx2rRwjqJ+FnGjDw40asXsHw5L8Pcvds6lThFRfcyCxdyFaK3y+KEf/2LV8KfOAHcdhuwaZN1InGCiu5l+vfnzoWYGOskEi4+/ZQ3UcTHc87HihXWiSTU1NO9TFQUe7q6Zl2cNmAA0KkTkCsX8OOPuofNz7TS/a/Fi4ELFziaT8Rpzz7LK+CzZAFq1ADWrbNOJKGiovtfgwbx+dRTtjkkfDVowGuhkpKAihWBCROsE0koqL3wX0WLsq2QkMCLKEWszJsHPPAAb6EePZpHiMU/VF7ADeoHDgClSqngir26dXn3WkQE8PjjwMiR1okkmFRiAKxaxa1iPXtaJxGhmjW5hTFjRuCJJ4BRo4wDSdCo6AKYO5cToOrVs04ikiw2luMgc+bkfl7dOOwP6umC28SyZAH27bNOIvK/du0CqlfnicmRIzXn2evCfqW7Ywdw/DiHTIu4UbFinH539izQuDEwZ451IkmPsC+6Awbw2bKlbQ6RaylVCpg0idvJGjbULRReFvbthXLleOb9zBkgWzbrNCLXNmEC71zLmJFHhqOjrRNJaoV10Q0EOGuhQAH1c8U7RozgUKZs2dgeK1DAOpGkRli3FzZv5h7dhg2tk4ik3BNPAJ99lvzv7unT1okkNcK66C5YwOcrr9jmEEmtTp3Yali1ihepqvB6R1gX3W++AYoX184F8aZGjXjJ5caNvApIV/94Q9j2dOPjgezZgbJl+S+tiFc9+CAnlN11Fy+/1FF2dwvbfzyjR/PZoIFtDpH0mj4duOcejoOMi7NOI9cTtkV34kQ+n37aNodIekVEACtXAiVL8j1Fnz7WieRawra9kC8fT/icPWudRCQ44uOBOnX4cm3aNI6HFPcJy5XuiRPAsWPs54r4RbZsHN50111AkybAmDHWieRKwrLo/vwznx072uYQCbacOXlcODER+Oc/gSVLrBPJ34Vl0V20iH2w1q2tk4gEX8mSwJQpnNMQFwf88Yd1IrlcWPZ0S5Tg8d/ff7dOIhI6n30GdOnC1e/OnUCePNaJBAjDle7Bg8D27foXUPyvc2fghReAU6eS71wTe2FXdIcM4fPhh21ziDjho4+Arl25peyNN6zTCABEWgdw2tSpfLZvb5tDxCkff8ztZP/+N3DoEDBokHWi8BZ2Pd0cOTiL9MQJ6yQizrlwAbjpJrbX+vblzAaxEVbthYMHOay8fHnrJCLOypSJhyYyZwZefjn5Jz5xXlgV3ZUr+Xz9ddscIhaKF+cx4YgIoGlTYP1660ThKayK7oIFvPX3/vutk4jYqFoVGD4cuHgRqFuXvV5xVlgV3aFD2dfKksU6iYidtm25q2H/fn6trWTOCpui+/vv3K94yy3WSUTsvfAC8OGHPDKs8abOCpuiO3gwn488YptDxC1eeIFzeOfN44pXnBE2W8buvBPYsEFXrYtc7tw5oFgx4PBhoHdvoEcP60T+FzZFN3NmIHdubhsTkWS7dwNlyrAAT5nCu9ckdMKivbBzJ5CQANSqZZ1ExH1uuglYuJBbyVq1Ag4csE7kb2FRdJcu5VOncESurEoVYOxYft2okW5UCaWwmL0wYwaQKxdQsaJ1EhH3atWK2ymbNAFiYniCLTIsKoSzwqKnGxUFFCzI3pWIXFubNsBXXwH33QesWGGdxn9831746ScO+4iOtk4i4g2jR/P+wJUrgXbtrNP4j++L7rBhfLZqZZtDxCsiIniPYP78wIgRPEQhweP79sKttwJbt3L3gvpTIim3cyf//CQkAKtXazpfsPh+pbttG1C4sAquSGoVLw7Mnw/kywc0bqytZMHi66K7fTuvom7e3DqJiDdVqwbMns2CW7UqT65J+vi66C5axKeu5hFJu+ho4N13+VPj3Xez3SBp5+uebu3awC+/AMeO8eWAiKRdkyY8JnzPPXzRJmnj66IbGQkUKgTs2WOdRMT7AgGgQgVg3TqgZUtg/HjrRN7k2/XfkiWcjh8TY51ExB8ubSUrWBD4+mtg5EjrRN7k26I7fDifjz5qm0PET6KigLVrgdKlgc6d+bWkjm/bC6VKsfGfmKh+rkiw7dnDITnnzwNz5gCVKlkn8g5fFt2kJH5HLlRI8xZEQmXJEl7ymjUrt2cWLGidyBt8uQb880+ucDt1sk4i4l/VqwNvvskxkOXLaytZSvmy6C5YwGfjxrY5RPyuZ0/eO7h/Pw9PyPX5sr1w993s5548CWTIYJ1GxP8qVgTWrAGefx74+GPrNO7mu6IbCACZMgFFi3Jgh4iEXkIC5++uXcsXa3Fx1oncy3fthfnzWXhjY62TiISPqCgeu7/jDp5cmznTOpF7+a7oXtqw/fjjtjlEwk3OnDwmfPYs71nbvNk6kTv5rr1QvDj3EF64oP25IhaGDAE6dOC9hLt28SnJfFWWAgHg4EGgTBkVXBEr7dsDXbrwRXalSvxzKcl8VZrWr+cJmVdftU4iEt4++QSoWRP44w+1+v7OV0V3zhw+a9e2zSEiwLx53L45fjywcKF1GvfwVU+3UCHg9GngzBnrJCICsMVQpQpw6BAwaxZQubJ1Inu+KbpnzwLZsgHlygEbNlinEZFLNm0C7rwTyJKFL7nz5LFOZMs37YXRo/ls0MA2h4j8VdmywMsvA/HxwL336sWab4ruhAl8duxom0NE/lfv3jywtGUL0KaNdRpbvmkv5M3LnQvx8dZJRORKLlzg8fxDh4AvvwzfBZIvVrpnz/IFWq1a1klE5GoyZQJ+/BHInp3TyY4etU5kwxdFd9kyzc8V8YISJTh69fBhoG1b3mMYbnxRdMeMATJm5BR7EXG3ypXZ450xgzMawo0vero5cvDY78mT1klEJCUCAaBYMWDvXmDgQODpp60TOcfzK90dO3gYokIF6yQiklIREcDy5UBkJNuCW7ZYJ3KO54vuoEF8Nm1qm0NEUufmm4Hhw9nXjY3le5lw4PmiO2MGn08+aZtDRFLvsceA5s05HfCtt6zTOMPzPd0sWbgF5cgR6yQikhaBANCwIXc1rFkD3H67daLQ8vRK98ABHoho1846iYikVUQEMGwYZ6c0aACcO2edKLQ8XXR/+IHPVq1sc4hI+tx4I2+b2LEDePhh6zSh5en2QpUqwLp1wKlT3KcrIt5WvDiv+PnmG/Z6/cizRVdXrYv4z+bNHM8aFcUZDTlyWCcKPs+2FyZMYOGtX986iYgEy223AT16sK/7wAPWaULDsyvdevV4Hci6dRyQLCL+UbEi8NtvwMqV/rttwrNFN3dubqbW1Twi/nP8OBdT+fMDq1ax3eAXnmwvHD7MOQvR0dZJRCQU8uQB+vXjatdvp009WXTnz+ezd2/bHCISOs2bA4UL89Tp0qXWaYLHk0V3xgwgXz5uGRMR/5oyhc+mTf1zt5rnim5iIjB2LLeKaW+uiL9VqQI0bsztY927W6cJDs8V3fHj+R2valXrJCLihHHjgKxZgf79gWPHrNOkn+eK7ogRfD73nGkMEXFIlizAqFFcbL3xhnWa9PPclrGcOfmbr61iIuHl+ee52p0929uHojxVdLduBcqU4V1oixZZpxERJ506BRQqxK+PH/fu3l1PtRcWLOCzY0fbHCLivJw5OYns7FmgfXvrNGnnqZVu27bAzJmco6udCyLhJxAA8ublqnfbNl754zWeWekmJgLffQfUqqWCKxKuIiKAL78EkpKAJk2s06SNZ4ru2LE8+nvDDdZJRMRSq1a80mf1al7v4zWeKbojR/LZtattDhGxN20akCsX8MorXPV6iWeK7sqVvIDyttusk4iItdKlgbffBubOBQYOtE6TOp54kfb990Ddurw76bvvrNOIiBtcuMAZLOfO8TbwXLmsE6WMJ1a6/fvz+dprtjlExD0yZWJNSEwEWrSwTpNynljp3n03f4N/+cU6iYi4zY03Avv388VahQrWaa7P9SvdjRt5Jc8TT1gnERE3GjOGT6+sdl1fdC/tVvDb9HgRCY46dXiLzJYtfOHudq5uLwQCHOmWLZs/RrqJSGgcOMA71cqVAxYuBDJksE50da5e6U6aBCQk+PcqZhEJjkKFgF69gMWLgffft05zba5e6cbEACtWsK9btqx1GhFxs8REXmh5/jxvmsiTxzrRlbl2pRsI8OrlfPlUcEXk+iIjgTffZPFt3do6zdW5tuguX+69/XciYqt7d94gPHs2r293I9cW3e++43eud9+1TiIiXjJqFJ9uXbC5sqcbCHDDc6VKwKxZ1mlExGuio3mYatUqfu0mrlzpDh0KHDzozQHFImJv7lygYEHu83fbstKVRXfAAD41a0FE0iJfPqBPH74bevVV6zR/5br2wvHj/A0rVAjYt886jYh4VSAA5M4NxMcDu3YBRYpYJyLXrXSfe44/Drz4onUSEfGyiAigXz8WXzdd7eOqlW4gwJmYgQBw+jR/00RE0qNMGWDrVm4jq1/fOo3LVrrTpgFnzgB9+6rgikhwTJ7M5+OPu+OlmqtWujExwN69/K4UGWmdRkT8okkTYMoU/tWokW0W16wnBw3inIVmzVRwRSS4vv6aNwi/9BKv97HkmpVukSKc/r53L4/xiYgE07x5QL16QI0aHP9oxRUr3TlzuD0sJkYFV0RCo25dDs9atAj49FO7HK5Y6ZYrB2zaxGt57rzTOo2I+NX+/UCxYnyhtn07cNNNzmcwX+lu3MiCe/vtKrgiElqFCwOffw5cvAjUqmWTwbzofvUVn599ZptDRMJDx45AtWrcJdWrl/Ofb9pe2LmTVybXqJG8l05EJNROn+ZP1qdPAxs2cOyAU8yK7rlzXOqfOQOsXcu+roiIUzZu5PjY++/naTWnDmSZtRdq1wZOnADat1fBFRHnlSvHGS/z5rEeBQLOfK7JSrdnT+Ctt/jybNMmpz9dRIQSE7mNbOtW4N57eUAr1Ctex4vusmVA9epAlizAnj1A3rxOfrqIyF8lJvLd0oYNwF13Ab/+GtpTsY62FxISgHbt+PW0aSq4ImIvMpKXWEZH86xAjRrcUhYqjhXdQADo1g3YsgUYPRqoU8epTxYRubaICODHHzkYZ/lyTiS7cCFEnxWaXzZZQgKvRc6Vi0fvunYF2rQJ9aeKiKRORATw7bfAe+8B48aF7iKFkPV0jx4FOncGJk7kd4zISOCxx4DBgzVFTETcbdgw7mi45Zbg/9ohKbozZgBNm3KVmz07T4D06QNERQX7k0REvCUka87SpdmUbtEC6NJFt0CIiFziiiljIiLhQmtQEREHqeiKiDhIRVdExEEquiIiDlLRFRFxkIquiIiDVHRFRBykoisi4iAVXRERB6noiog4SEVXRMRBKroiIg5S0RURcZCKroiIg1R0RUQc9P+9K2BT4WXTCAAAAABJRU5ErkJggg==;imageBorder=default;strokeWidth=1;" vertex="1" parent="1">
          <mxGeometry x="20" y="260" width="107.27" height="71" as="geometry" />
        </mxCell>
        <mxCell id="QUKQrDG_E3J86xNQLUYg-9" value="" style="shape=image;verticalLabelPosition=bottom;labelBackgroundColor=#ffffff;verticalAlign=top;aspect=fixed;imageAspect=0;image=data:image/png,iVBORw0KGgoAAAANSUhEUgAAAV0AAADnCAYAAAC9roUQAAAABHNCSVQICAgIfAhkiAAAAAlwSFlzAAALEgAACxIB0t1+/AAAADh0RVh0U29mdHdhcmUAbWF0cGxvdGxpYiB2ZXJzaW9uMy4yLjIsIGh0dHA6Ly9tYXRwbG90bGliLm9yZy+WH4yJAAAZl0lEQVR4nO3de3jPdf8H8CebQ9swLMlpodEkZ1IkOUYp6aQQpcNPSQ6VqIjoKMmhHHLfN7dTdVXuuyhyKIyylMMY0xoL0WGG7btZs/3+eN67uN0O323f7+f9OTwf19X1ueqq9lTz2vv7+rzfr3eJ/Pz8fIiIiCVKmg4gIuIlKroiIhZS0RURsZCKroiIhVR0RUQspKIrImIhFV0REQup6IqIWEhFV0TEQiq6IiIWUtEVEbGQiq6IiIVUdEVELKSiKyJioVDTAaTo9u8HvvsO2LED2L0bOHECuOYa4IEHgJgYoGxZ0wlF5GwlNE/XOXJygOnTga+/Br75Bjh+/Px/b4kSQHg4EBYG9OgBTJgAVK1qWVQROQ8VXQdITASGDwdWrQJyc4HKlYF77gHy81lUGzYEWrYEoqKA+HggMxPYswdYvBhITuY/AwB16gBDhwJPPAGUVGNJxAgVXRtLSwPat2f7AAAqVAAefBB4+WUgIsK/f0deHjBrFjB1KlsQAFCrFjBsGDBgABAZGYzkInI+Kro2lZQE3H47C2VsLPDqq/zz4khLAz79FJg/H1i3jqvde+8FZs/2v4iLSPGo6NrQ+PHAm28CZcoAM2awMAba9OnA6NF8+RYSAvTtC8ycqZdvIsGmomsjx48DbduynVC3LrB2LVCzZvC+Xl4e8MorXEX7fFztfvkl0KZN8L6miNfpdYpNHD4MVK/OgtusGbB1a3ALLsD2wgsvcLX79NNc5bZty77xnj3B/doiXqWVrg34fHy59eefwJAhwDvvmMmRkcGXdJMmcWdEv37A3LlAqHZziwSMiq5h+fnArbcCy5fzUMO8eaYT8WXbgAFsd5QrByxYANx2m+lUIu6g9oJhY8aw4D71lD0KLgDccQdw9Cjw8MNc/d5+Ow9YnDxpOpmI82mla1DfvsDChcDAgcCcOTxFZjeJiUD37sC+fdy6NmsWcMMNplOJOJdWuoY8/zwLbpUqwHvv2bPgAiy0KSlcjft8QLt2QIMGPOkmIoWnla4By5cDt9zC2Qg//8zC6wQnTgA33QRs2cIfEv37c4WuF20i/lPRtVh2Nmck+HzcFtaokelEhffhh+z3njjBvb3z5gG9eplOJeIMai9YbNAgDqQZPNiZBRfgsJ30dOCRR/jD4667+Ov54w/TyUTsTytdC+3cyYMPbdpwYpgbJn398QcwbtzpvnSnTuxVV6pkOpmIPanoWiQ7G2jRAjhyhMXXKX1cf/34I9CtG399ISFsP0yfrn6vyNlcsNZyhttvZ7F9/nn3FVwAaNqUR5nffpuDembNAsqX5+m6U6dMpxOxD610LfDxx+x71qwJpKaaThN8ubk87DF3Lg9U1K3LPclDhqjtIKKiG2Q+H3crZGfzoEH9+qYTWefUKR4pfu2109vMOnQA3niDvW0RL1J7Icj69weysoARI7xVcAH2du+6C9i8mW2HqChg9WqgeXNeOfTcczxmLOIlWukGUUYGcPnlQOnSwO+/u2O3QnF98QVn+H77LdsQYWHAzTfz/rbBg4HoaNMJRYJLRTeIJk7kvNq4OOD6602nsZdTp4D163l55vz5bL8AnGrWsiUnrt1/P1CqlNmcIoGmohskyck8/NChA/DZZ6bT2JvPB/zjH8CiRdx65vPxr19yCdC4MS/kjIoCOnfmtjQ37v4Q71DRDZLWrYHvvgM+/5xzFsR/iYnc+ZCby6PScXGnr5EH+EKuXDnOgYiO5gGNUqXYyqlenQPh69ThMyxMe4XFXlR0g2DLFh6EqF2bA22keApaEcuWAdu3AwcOcDUcHg7s3+//y7iSJflHSAj3EMfEcDWdksK+e8WK3NJWpQp3V3TrxsKtFocEkopuEFx9NbBrFy+WbN/edBp3y8/nKbjkZM78PXiQf+Tmcn+wzwesWcPr57OzgZwc/hEezn3TBYOHTp7kRZ1nK1GCK+WCv79dO6B3b/bo9WJUikJFN8BWr+b8gYYNecmkOEdeHnDoED+dHDnCwUR79gBLlrCFceaKOiKCPeb27YGOHfmDVsQfKroBdtNNwDff8IVQ48am00ggZWfzsMfSpbw/LinpdPvo0ku5Ah4zhi/9RM5HRTeAtm0DmjQBRo7kKSxxv5UrgbFjgfj40zMm6tXjjOHWrc1mE3tS0Q2gLl2ATZs4X6FiRdNpxEq5ucC0aRxx+dNP/Gt9+vAkYpMmZrOJvajoBsgPP/B4a8uWPPYq3nXwIDBlCjBjBo+AR0cD777LCz5FVHQDpG1b7idds4Z9XZGUFPZ5C34IN28OfPmler5ep6IbAGlp/I102WXAr7+aTiN2k5jIO+R27+ae30WLOAhIvEk7DQNg+HDuF332WdNJxI5iY1l433oLKFsWuPtu3pV37JjpZGKCVrrFlJ8PREZyw31mpjbMy4X5fMCLL3LUZWgoMHkyp6uJd6hEFNPatdyz+eqrKrhycWFhXPEuXMg/f/JJTlMT79BKt5huuYV7NFNT+dFRxF/793O3y++/swWxeTNPuom7aW1WDKtXA8uX89ivCq4UVnQ0h/e0bs2eb4MGPH4s7qaiWwxPP82nXqBJUZUuzQM1I0ZwxduiBfd8i3up6BbRgQOcTlW7tk4cSfFNmgRs3MgXs61a8XSbuJOKbhENGcLn+PFmc4h7NG3KYTohIfz+eukl04kkGPQirQjy8k7fSKDbbCXQ9uzhEHWfD3j8cR4nFvfQSrcIfviBQ6//7/9MJxE3ql+fhbdCBc5s6N/fdCIJJBXdIpg/HyhThjf9igRDjRqc1VurFr/fNCrUPVR0C+n4cWD2bA61iYw0nUbcrFIljom8/35g1Ci2GsT5VHQLacIEthbatDGdRLygVCkORG/alLN6+/QxnUiKSy/SCqlqVe6nzMriHksRK2Rk8KLN334DHnmEn7bEmbTSLYSEBJ4YatFCBVesFRHBl2sVKwJz5nCynTiTim4hFLw4e/55sznEmyIjOZO3fHlOKSsYmiPOovaCn/LzgWrV2FZITzedRrzswAHO+9i/n/M/rr/edCIpDK10/bR1K3D4MPDKK6aTiNfVqAGsX89nly7AF1+YTiSFoZWunx58kB/nDh/mVh4R07Zu5cm1kBBgyxagUSPTicQfKrp+yMhgH61OndPXa4vYwbx5wIABPJaenMzdNWJvai/4YeJE9nT79jWdROS/9e/P6398Pq50s7NNJ5KL0UrXD9WqcatYZqaGlYs99e3L9lenTsDKlUCJEqYTyflopXsRhw7xWvWGDVVwxb4WLGCbYdUq4PXXTaeRCwk1HcDuCr6BH37YbA6Ri/nb33hEfdQo4OhRFV+7UnvhInr14o2/R47oFJrYX3Y2X6YdOwa8/z4wcKDpRHI2tRcuwOcDVqwAevdWwRVnKFuWd66FhnJGw4YNphPJ2VR0L+CNN1h4b7nFdBIR/8XGAp9+yh03nToBqammE8mZ1F64gCuu4Desz6eXaOI8b77Jm6rr1OGwnFC9wbEFrXTP4/hxnm2PiVHBFWd65hlg5EjeQDFihOk0UkA/+85j0iQ+dSBCnOy114CcHE4lO3UKmD7ddCJRe+E8rrySxypPnOAsUxGnys0FoqO553zGDF37Y5qK7jn89RcLbXQ0kJRkOo1I8aWk8Jbh3FwgLg647jrTibxLPd1zWLuWH8kKWgwiTle7NrB0KXc0dOjAa3/EDBXdc1i4kCvdLl1MJxEJnO7dgXHjeICiTRsgL890Im9S0T1Ldjbwz38CNWtq14K4z5gxQL9+HFGqgfxmaPfCWd59lx/BunUznUQkOObN4yr3xRc5J3rIENOJvEUv0s7SqBGwYwdnLVSpYjqNSHD4fPw0l5bGUZCdO5tO5B0qumfIzQXKlOHAkIMHTacRCa4NG4B27ThX5OefOTdagk893TMsWcKPXZq1IF7Qti0PT5w8CbRqpRdrVlHRPcPOnXwOH242h4hVnn0WuPVWfrLTYsMaai+coVUr3qy6aZPpJCLWycvjzSiJibzO/eabTSdyN610/yMhAYiPB9q3N51ExFolS/J7v1Ej4L77gO3bTSdyNxXd/5g8mc8mTczmEDEhPBz45BPuamjdmrsaJDhUdP9jxQr+xL/7btNJRMyoWxd47jkgK0sv1oJJRRdARgYnMNWrx8Ir4lXjxnEbWXIyT65J4KnEgKfQAOCuu8zmELGDVauAqChg0SJg7lzTadxHuxfAn+zr1+sUmkiB5GSgQQMeE965U78vAsnzK938fLYWOnXSN5ZIgbp1gY0b2Xrr04e3TkhgeL7oJiXxp3rPnqaTiNhL8+bAtGlsN2gAVOB4vuiOHs1np05mc4jY0UMP8Vbsr75iAZbi83xPt2JFbpHJzjadRMSeDh1i4T11iv3dq64yncjZPL3STU0F0tN1IELkQqpVA+bP577ddu04jU+KztNFd8oUPh94wGwOEbvr3Ru45x7g99+BoUNNp3E2T7cXrrySc0R9Pl3NI3IxeXlA167A119zi2Xr1qYTOZNni25eHlChAm9J1YAPEf+kpwNNm/IdSHw8UKOG6UTO49n2wpYt3IM4cqTpJCLOERkJvPUWcPgwr3KXwvNs0V28mE/dDSVSOL168Qr3vXu1aCkKz7YXKlTgW9jMTNNJRJwnM5MnOLOygK1bOYtX/OPJle6BA8Dx4/pGESmq8HDeKZifz4NFGgPpP08W3Rkz+Lz3XrM5RJysR4/T28jmzDGdxjk82V64+mpg1y7gxAkgIsJ0GhHnKthGtnEj2wwxMaYT2Z8ni26pUkDlynwDKyLFc+AAUL8+ULo0x6OWLm06kb15rr2wdy9foPXvbzqJiDvUqMHfT+npatn5w3NFd+VKPh9+2GwOETeZPp27GZYuBdatM53G3jzXXrjmGjb+f/0VKFHCdBoR9/juOx4NrlSJv8d03+C5eeo/S0YGkJDAfq4KrkhgXXst2wtpabxVWM7NU0W34JK9224zm0PErRYs4KfJ99/nSzX5X54quh98wOfjj5vNIeJWoaHARx9xct/AgabT2JOniu62bbzdtGZN00lE3Kt+fWDAAGDZMmDUKNNp7MczL9JSU4HoaKBjR160JyLB4/Px3UlODrB/v0ZAnskzK90NG/gcP95sDhEvCAsDZs7kibU77zSdxl48U3RXrOBWlmuvNZ1ExBv69+ftLJs3A6tXm05jH55oL+TlAWXKAI0bA99/bzqNiHds28aLX5s0AX780XQae/DESveTT3j0V6McRazVuDEwdiyH4ehdCnlipdujB/D55/yY07Kl6TQi3pKdzcl++fmc7uf1S2A9sdLdtImTj1RwRaxXtizw6KNASgrwwAOm05jn+pVuejpQsSJbC9u2mU4j4k15eUBUFH8/7t0L1K1rOpE5rl/prl3Lp0bOiZhTsiRvl8jP58WWXub6ohsfD4SEAE8+aTqJiLfdeSfQoAGwfTvfsXiV69sLDRvy5t+4ONNJRCQxkS/VrrvOu78nXb3S3bsX2LlTb0tF7CI2Fhg9mneqeXXfrquL7syZfN5zj9kcInLaM88AkZHAoEGmk5jh6qK7fDmfug9NxD4qVADat+dNE7NmmU5jPVf3dEuV4jaVX381nUREzvTbb8Dll3PUalqat25yce1Kd80aHv294QbTSUTkbFWqAD17ct/um2+aTmMt1xbdXbv4HDzYbA4RObe//53bOceP5+EJr3Bt0f36a94QoZWuiD2VLw/06QNkZgLz55tOYx1X9nRzctis794d+Phj02lE5HyysniRZXg4t5B54dp2V/4SFy7kZKNq1UwnEZELueQSthe2bwemTjWdxhquXOl27szZnTt38tihiNhXXh4QEcG5DJmZ7l/tuvKXFx/Pn6AquCL2V7Ik0Ls3P52+8orpNMHnupXukSNA1aqcnbt5s+k0IuKPjAyeUouI4DYyN3PdSnfJEj69Pj5OxEkiInjDy7Fj7j+l5rqiu38/L6F84gnTSUSkMGbN4sm0SZNMJwku1xXdFSuAG28EypUznURECqNKFWD4cOCnn4CEBNNpgsdVRTc+nifRvHwViIiTjR7NPbsTJphOEjyuKrrvvcdnx45mc4hI0VSqBNx0E/DBB8C6dabTBIerdi/UqgUcPAj89Zf79/qJuFV8PNCqFU+qbd9uOk3guaY05eQABw4AtWur4Io4WcuWQL16wI4d7uztuqY8LV7MEy1du5pOIiLFVXAk+LHHzOYIBtcU3YKDENoqJuJ8XbtyyPmmTdy76yauKboJCUCzZjr6K+IWr73GT68ffWQ6SWC54kXakSNA9eq88O7VV02nEZFAyM8HmjYFTp3iCzW3XOnjipXu1Kn8H6NRjiLuUaIEL5VNSAAmTzadJnBcsdJt1IhvOo8d4zR6EXGH9HTu3a1SBTh82HSawHDFSnf3bv5PUcEVcZfISKBNG7YQ16wxnSYwHF90v/mGhyF0F5qIO73zDp8jRpjNESiOL7qzZ/M5cKDZHCISHM2aAVdcAWzdygNQTuf4onvsGFC5sg5FiLjZuHF8LlhgNkcgOPpFWm4uEBUF3H03MGeO6TQiEkzXXw/89huwZw8QEmI6TdE5eqW7ZAlXum3bmk4iIsH25JNAcrLzh5w7eqV7440c//bTT5qhK+J2Ph93KJUvD6SlmU5TdI5e6cbH84YIFVwR9wsL46zdo0eB5ctNpyk6xxbd778HsrLY5xERb3j7bT5HjzabozgcW3SnTOFz0CCzOUTEOg0bAtHRwLZtzj2h5tii++23QGgor20WEe947jk+Z8wwm6OoHPkizefj3tyHHnLuf3gRKZq8PE4fy8/nitdp08ccudJdtQrIzgZ69jSdRESsVrIkMHgwh1z961+m0xSeI1e6DRtyg3RmJlC6tOk0ImK1Eyc4DKd6dSA11XSawnHcSjcvD0hMBC67TAVXxKvKlQMaNwZ++YUtBidxXNFdtIiFt3t300lExKTXX+dz2DCzOQrLce2F9u05znHXLiA21nQaETEpKoqHJTIygEsuMZ3GP45b6RacQlPBFZHHHuMn3wkTTCfxn6OK7sGD3C6m1oKIAMDYsUDVqkBcnOkk/nNU0V22jM8XXjCbQ0TsoXRp4Kmn2HJMSDCdxj+O6um2acPJ8fv2OW9DtIgExx9/cLV79dXO2MngmJXun38CGzdyb54KrogUiIoC6tQBtm8HUlJMp7k4xxTdgsvpevc2m0NE7KfgOp+hQ83m8Idj2guxsbxq/dgxXbUuIv+rQgW+aLf7SVVHrHR9Ph77rVlTBVdEzu2hh3hvot23jzmi6E6bxolC/fqZTiIidjVxIhARAaxebTrJhTmi6CYkcIVbMEdTRORsYWHAyJF84b57t+k052f7ouvzAZ9+Ctx7L0+iiYicz6OP8nKDwYNNJzk/2xfdMWPYGNcNESJyMVWqALVqscXwyy+m05yb7YvuwoUcWty1q+kkIuIEY8fy+dRTZnOcj623jCUnA1deCTRvztt/RUT8Ua4ccPIk25OhoabT/Ddbr3QLNjw7bV6miJj14IPAX3+xPWk3tl7pVqzIn1RZWWwxiIj4IzubhyVq1gT27rXX6ADblrJffgHS04FOnVRwRaRwypYFJk1ii3LDBtNp/ptty9mHH/I5ZYrZHCLiTAMHApUr229/v22L7uzZQIsWQEyM6SQi4kRhYUCrVjwssXSp6TSn2bLoLl8OJCUB0dGmk4iIkxVMJ3z6abM5zmTLoltwy6duiBCR4oiJAZo0YW/3229NpyHb7V7IyQHCw7nPLi3NdBoRcbq4OKBtW6BZM2DLFtNpbLjSHTmS49keecR0EhFxgzZtgNq1gR9/5NU+ptlqpZufD1SqxFkLGRn2HkQsIs6xfj3Qrh3w8svm25a2WumuWcO9uePGqeCKSODccAPQrRtfrB09ajaLrVa6nTtzdm5KCjc3i4gEytKlwB13AF26ACtWmMthm5Xu4sXAqlVAz54quCISeD178qr2lSt5c7AptlnpRkcDqanAvn3anysiwfHVV1zp1qvHexdNsMVKd906FtyWLVVwRSR4Onfm1rGkJOCDD8xksMVKt1EjYMcOID6eR39FRIIlJQWoW5cTyPbts34CmfGVblISC25MjAquiARf7drcIZWaCvz739Z/feNFd8ECPqdNM5tDRLxj1CggNhYYOpRnAqxktOimpgLTpwO33aY70ETEOqGhwDPPsL3Qt6+1X9tYTzc7m9s3MjOBbduABg1MpBARL7v0Uh4N3rWLK18rGFvpdugAHDvGQcMquCJiwty5fF53HU/DWsFI0X3pJWDTJuCqq4CZM00kEBFha/Pxx7kAvOYaXmYZbJa3F+LieA66bFng0CEgMtLKry4i8r969AA+/xwYPBiYOjW428gsXenm5PBqZAD47DMVXBGxh88+A4YN44v9l18O7tcKDe6//rS8PGD4cF6HvHAh0LGjVV9ZROTiJk3iuYGxY/kpPFitz6C3F3JyuCdu1izuVBg2DJg8OZhfUUSkaI4f5yiC9HRg/nygX7/Af42gtRfS0oD77uPVO5Mns/gOHAi88UawvqKISPGUL88JZLVrB++6sKCsdJctA3r1On3f2aBBwMSJGkwuIs5w8iRQpkxw/t1B6enGxADNm3Ol+8QTQEnjh41FRPwXrIIL2GTKmIiIV2gNKiJiIRVdERELqeiKiFhIRVdExEIquiIiFlLRFRGxkIquiIiFVHRFRCykoisiYiEVXRERC6noiohYSEVXRMRCKroiIhZS0RURsZCKroiIhf4fGcMp8myRytkAAAAASUVORK5CYII=;imageBorder=default;" vertex="1" parent="1">
          <mxGeometry x="40" y="270" width="107.27" height="71" as="geometry" />
        </mxCell>
        <mxCell id="QUKQrDG_E3J86xNQLUYg-10" value="" style="shape=image;verticalLabelPosition=bottom;labelBackgroundColor=#ffffff;verticalAlign=top;aspect=fixed;imageAspect=0;image=data:image/png,iVBORw0KGgoAAAANSUhEUgAAAV0AAADnCAYAAAC9roUQAAAABHNCSVQICAgIfAhkiAAAAAlwSFlzAAALEgAACxIB0t1+/AAAADh0RVh0U29mdHdhcmUAbWF0cGxvdGxpYiB2ZXJzaW9uMy4yLjIsIGh0dHA6Ly9tYXRwbG90bGliLm9yZy+WH4yJAAAaQUlEQVR4nO3deZiO5R4H8O+8jCHbZN+XrNOkOjVoELJ0qiOy1XQqy0kohSNRV6uudCpJKcSprKFQnchSHDFOyM5YIgZlyW7GMhjvc/74NhdqMMv7PvezfD/X1fV0lrxf4jf3/J77/t0RlmVZEBERWwRMBxAR8RMVXRERG6noiojYSEVXRMRGKroiIjZS0RURsZGKroiIjVR0RURspKIrImIjFV0RERup6IqI2EhFV0TERiq6IiI2UtEVEbFRXtMBhP73P2DYMCAQAOrWBe67D6hcGciXz3QyEQmlCM3TNWfXLuCZZ4DZs4GTJ//8vwcCLLpVqwKTJgG33GJ/RhEJLRVdA9asAXr3BpYs4X8uUABo3JgFuHhxYMsWIC0N2L4dmDAB2L2b/7/bbwemTgXKlTOXXURyR0XXZv/+N9CjB3DNNcCLL7KNUKvWlf+ZhQuBLl1YfCMigIEDgVdfBSIjbYksIiGkomujfv3Yt42MBGbOBP761+z982PHsuAePAjcdBMwaxZQoUJ4sopIeKjo2iAYBFq1AubMAQoXBlasuPrq9nIsC/jqK6BzZ+DsWfZ6O3QIbV4RCR9tGQuz9HSgbVsW3EqV2CLIacEF2F5o25bF9tw5oGNH4K23QpdXRMJLRTfMXn8d+PprICGBL8aio0Pz47ZuDSxbBuTPz5ZD9+6h+XFFJLzUXgijTz9lGyAhgSvTcNi9G7j5ZuDoUb6U+/LL8HyOiISGim6YHDkClC0LnD8P7NkDlC4dvs86cQKoXx/YtAkYOpQv7ETEmdReCJMWLfii67XXwltwAaBQIWD9er5Qe/ppYPDg8H6eiOScVrphMHQo0L8/UKcOi6Fd0tL4km73bm5N69vXvs8WkaxR0Q2xX37hsd1AANi7FyhRwt7PT04GYmKAM2eA6dOB9u3t/XwRuTK1F0Ls+ee5L3fUKPsLLsCC//33LPr33w8sX25/BhG5PBXdEPrmG2DiROCFF4BHHzWX47bbgM8+Y/Fv2pQ7G0TEGdReCJFgkMNqoqLYU3XCSMZ332Vv+d57gRkzuPoVEbP0xzBEXn8dOHYMuPtuZxRcgC/Shg7lseH+/U2nERFAK92QCAZ50uzUKRbeQoVMJ7rAsoAGDXh67c03gQEDTCcS8TetdENg+HAgNRVo185ZBRfgrIavvmLb49lngaVLTScS8TetdEOgeHGucA8eBIoVM50mc/PmAXfdxTm+e/aEbgaEiGSPVrq5tGwZj/wmJDi34AKc3fvcc2yB3Hab6TQi/qWVbi61bs1LJXftcl5rITONGwOJicAnnwBdu5pOI+I/WunmwrRpvAGiZ093FFyAV/80awb06gWsW2c6jYj/aKWbC5Uq8djvjh08CeYW+/dzRsOZM8DOnUCZMqYTifiHVro5NGcOC258vLsKLsAi+/LLLLrx8dzyJiL20Eo3h2JieFV6UhIQG2s6Tc60aAEsWAA8/DCPL4tI+Kno5sCRI9wmdt11vILHrdLTueo9fBiYOhV44AHTiUS8T+2FHJg6lc8nnzSbI7fy5uVOhkCAL9ZSUkwnEvE+Fd0cmDkTqFgR6NPHdJLci4nhz+fYMW4h0/c9IuGloptNSUk83fXII96Z2nXPPZzL8MUXPMosIuHjkbJhn2ef5WqweXPTSUKrXz+gcmXOaXjrLdNpRLxLL9KyIRjk7ILISA648Zr9+4EqVXihZmIi0LCh6UQi3qOVbjZMmcK9rffeazpJeJQpw/6uZQEtW3KXhoiElopuNgwZwudrr5nNEU4tW/K6odOnOZBd3weJhJbaC1mUlgYULAiULQv8+qvpNOHXqRMPTHzwAbeTiUho5DUdwC2+/ZY93UGDTCexx7hxvNDyqad4eOKll0wnEvEGrXSzqH17YMkSrnIjI02nscfJk0CFCtzDO2YM8NhjphOJuJ96ulmwbRvw5Ze8ztwvBRdgO2XJEp5c69GDQ35EJHdUdLPg+ef5QsmPBwdiY4G5c/n3rVsD69ebzSPidmovZEGRIsC5c3yj71fjxwNduvBKop07gcKFTScScSetdK9i40YehIiPN53ErM6dgbffZn+3TRtvHg4RsYOK7lUMHcqnXiIBTz8NTJgALFrEsZZJSaYTibiP2gtX0aABsHYtcOKEdwbc5Na77wL//CdfsM2d6745FFu2cMZESgpv/9i1C9iwgS2k9HTg/Hm+MK1XD6hfny2VYBC47z5OZRPJDRXdK0hLA0qU4EGBkSNNp3GWjz++sPqfMIG3TzjVhg3Aq69ynsTBg5deT1ShAi8V3buXhTYqin+lpnLOxv79nEWRoWhRfpEZMIAFWSS7VHSvYOJEFtzZs3kkVi41Zw7nUJw/z9GQAwaYTkTp6fyikJjIG48z2iCRkUD58sANN/Aq+vbt2Sa5kmAQ2LwZmD+f2waXLeP8DQC46Sa+XOzenQVaJCtUdK8gNhbYtInfhuptfeZWrwaaNGH7pXdvzqUw8WsVDALTp/Nl3+rV/EIAAHfcAbRqBcTFsdCGwrff8rDI7t3AihVAgQLAnXcCn3zCVoTIlajoXkYwCOTLB5QqxW895fJSUzlneORIHqjo3x945RV7PnvnTmDyZM4APn6c/12pUkCHDlx5V64c3s9ftIj7t48cYc//vvu4yo6ODu/niotZkqnJky0LsKyuXU0ncY/Zsy0rKoq/bhUrWta6deH5nFWrLKttW8sqXJifBVhW7dqWlZBgWVu2hOczr2b4cMsqWpRZ8uSxrPfeM5NDnE9F9zKaNuUfoKQk00ncJTXVspo1u1AMa9WyrP/8x7LOn8/5jxkMWtYPP1hWu3aWFR194ccuUMCyeve2rOTkkMXPtbffZi7Asnr25K+HyMXUXriMggX57aIOAeTM7NmcUJaczBJZqRJvomjfni8lr/TiKSWFvdJp0/jPJyVdaPHky8dtfM88w7vdnOj0aeDFF7nHu1Ah4I03NB5TLlDRzcSePdxK9MQTwIgRptO4W0oKMGsWMGnSpQNzAgFuzSpbloOEjh3jC6pTpy7d0hUVxT5pixZA7dpAo0a2/xRybPp04MEHuZsiLg5YuJBFWPxNRTcTo0cDPXtyhRUbazqNdyQlAe+8w9Xr/v18+RQRAeTJw/2vx49z50O5cryrrWVLoGNHHsJwq/37gWbNuO0sOhpYuRKoVs10KjFJRTcTMTEc4L1vH4uCSG49/jjw4YfcXrZ2LVCzpulEYooOtv7BgQM8Jlq2rAquhM6oUdxSFxXFk2wLFphOJKao6P7Bu+/y+fe/m80h3vP448CaNTwV17Kls49OS/iovfAHtWoBW7dy14Jeekg4HD7MFtbBgzwlt3Chhin5iYruRYLBC+fzd+82nUa8LC0NuPFGXgVVvz7www8qvH6hf80XSUxk4W3RwnQS8br8+TnXIzYWWL4cqFuX+5nF+1R0L7J2LZ+6blzskDcv75y75RYO6enV69I9yuJNKroXmT+feyirVDGdRPwiEODe3YEDucOhTZtL5/eK96in+7u0NB5NbdiQbQYRO1kW8OST3FZWowYPU+TJYzqVhINWur+bNIm/8evWNZ1E/CgigkfOGzfmy7V69dRq8CoV3d9Nncpnjx5mc4i/LVzIGylWr+ZeXvEetRd+d+21vIbl1CnTScTv0tM53Gf7dk5qGz7cdCIJJa10ARw6xClX119vOokIdzUkJXEy2fvv8+JP8Q4VXfDKFYBj+EScIH9+YMkS7hnv2pXzecUbVHTBgdl586qfK84SFcUbiIsU4YWfY8aYTiShoJ4u2FYoVowrCxGn2byZL9fS04F58/SCze18v9JNTuZv6shI00lEMhcTc+HWjXvu4e9XcS/fF91Ro/js2NFsDpErad6c7YX0dOCOO7TLxs18X3QzVhCdOpnNIXI13brxksvffuO85/PnTSeSnPB9TzcqivdzHThgOolI1rz/PtC7N9CkCfD996bTSHb5eqW7ciWHi9SvbzqJSNY99RRw++3c6tihg+k0kl2+LrobNvD51FNmc4hk1/z5QJkywIwZwCuvmE4j2eHrovv990CJEhpaLu6TLx+wbh1vFx40CPj8c9OJJKt829MNBoHoaLYWvvvOdBqRnFm9mhPJ8uQBduzgVVPibL5d6S5YwMsnS5UynUQk5265BfjsMxbdNm2AkydNJ5Kr8W3RnTyZT81bELdr357thdWrgUaNuJdXnMu37YXq1fntWHq6bmEVb+jWDfj4Yw7i//FH02nkcnxbdCMjgZIlgb17TScRCY1gkDMakpJ42Gf8eNOJJDO+XONt2sQVrvbnipcEApyYV7w4Z/AOHWo6kWTGl0V3/Xo+Bw40m0Mk1PLnZ283Kgp45hluKxNn8WXRXbwYKFyYk/lFvKZSJR6eiI7mS7ZDh0wnkov5sqdbpAhQrhywZYvpJCLhs3QpJ5JVq8a/L1LEdCIBfLjS3baN+3MrVjSdRCS84uOBV1/lO4ybb9aV7k7hu6I7bhyfbdoYjSFiiwEDOIs3OVnH3Z3Cd+2FuDhg1Srg6FH2vES8LhgEatTgvvRevYAPPjCdyN98V3QLFeKRyePHTScRsU9KCl+wHT8OfPEF0Lat6UT+5av2Qmoqrzm57TbTSUTsVaQI9/CWLQt07w5s3246kX/5quguXw5YFtCvn+kkIvarUYODz4NBoFkzFV5TfFV0580DIiKABg1MJxExo0YNHg/evRu49Va2HcRevurpXnstL/PTbzTxu169gJEjgcqVgZ9/BvLmNZ3IP3yz0k1JAY4d41d6Eb8bMQK4805g1y6gcWPTafzFN0V3yhQ+tVdRhObMAWrX5mm1Pn1Mp/EP3xTdr77is0sXozFEHCMQANasAW64gXt358wxncgffNPTLVWKexTPnDGdRMRZUlOBJk04i+STT4CEBNOJvM0XK93z53l3lHpXIn9WuDAwcyb/nDz0EKfwSfj4ouhu2MBDEWotiGSufHlgxgzuY2/RAvjpJ9OJvMsXRXfqVD4bNjSbQ8TJWrVib/fcOc4o0Rze8PBFT7dyZWDPHv5miogwnUbE2QYOBN56i3N4t2zRHt5Q88VKd88eDi1XwRW5ujffvDCfoVcvthwkdDz/NWzpUr4g0CWUIlk3ejQvuPzXvzgG9fPPTSfyDs+vdD/9lM927czmEHGbwYN548S0aUDXrqbTeIfne7p16gBJScDp07wpVUSy7tQpzuE9fBh4+WXglVdMJ3I/z690IyI4P1cFVyT7rrkGWL+ez0GDgLFjTSdyP08X3ePHgY0bgbvuMp1ExL3KlQOWLeMuhsce0x7e3PJ00R03jgOb69QxnUTE3erUAWbP5g0Ud98N/Pab6UTu5emiO306n/HxZnOIeEHLlsDcucD+/UDdunxK9nn6Rdq113LAzalTppOIeMd77wF9+wIlS/IGCr0vyR7PrnRPneLQ8po1TScR8ZY+fTgY5+BBbikLBk0nchfPFt1p0/i84w6zOUS8aNIk3jX400+8gUKyzrNFd9EiPh96yGwOEa9KTASqVAEWLADeecd0GvfwbNFNTeWgm7g400lEvCkQ4NjUuDgOyZk/33Qid/Bk0bUsYMkSoFEj00lEvK1QIRbb2rWB1q05DF2uzJNFd9EibmcpWdJ0EhHvK1qUA3HOnOGMk61bTSdyNk8W3cmT+dRKV8QeMTGcTJaeDtSrB5w4YTqRc3lyn25MDIcvnzunAcwidurVCxg5EqhRg38GA55c1uWOJ39JkpPZWlDBFbHXiBH8DnPbNhZg+TPPFd3t29lbuukm00lE/GnhQt5HOHo0MGuW6TTO47mim5jIZ9u2ZnOI+FXevMC8ecBf/gLcfz8wZ47pRM7iuaKbcZGerlsXMadgQQ6cOnOGC6ADB0wncg7PFd3584Fbb+XQZRExp2pV4PXXWXjj4zWjIYOniu6RI8CqVUCePKaTiAjAk2pNmwI7dui7zwyeKroTJvDZvLnZHCJywbx5vFl44sQLg6j8zFP7dJs3B/77X35VrVrVdBoRybB5M1C/PlCiBLB6NRAdbTqROZ4qusWLc47u6dOmk4jIH/3wA9CkCUdBzpzp34MTnvlpp6Wxp1u9uukkIpKZBg2AF17gXWsJCabTmOOZortmDZ8PPmg2h4hc3osv8jvSadOA774zncYMzxTdZcv47NzZbA4RubxAgJdbRkRwItnZs6YT2c8zRffzz4Hy5fmXiDhXXBzQsycnkbVubTqN/TzxIi0Y5Cm0664Dfv7ZdBoRuZpgEKhUCdi7l61BP81K8cRKd+5c3hah+bki7hAI8HaXEiXYEvRTm8ETRXfqVD71Ek3EPapUAT76CFi3DujQwXQa+3iivVCtGmfopqf7d++fiFtlXDrw0UfAo4+aThN+nii6kZFA6dLAr7+aTiIi2fXLL1z1RkVxr33+/KYThZfr14W//MIVbrduppOISE5UrAj07cuTpA89ZDpN+Lm+6GYMLffj1hMRrxgyhIcmvvgCWLvWdJrwcn3RHTECyJfPX1tORLwmEOAL8UAAeO0102nCy/VFd9UqoHBhzdAVcbsWLTibYcYMTgv0Kle/SNu2DahZk/+y/HqOW8RLTp/m9e0pKTw4UaiQ6USh5+qV7rhxfLZpYzSGiIRIgQJA9+5Aaqp39+66eqUbF8f2wtGj/h6KLOI15coB+/bx1FrDhqbThJari27Jkjz+e+iQ6SQiEkpLl3L+boUK3BbqJa5tLxw8yGLbt6/pJCISavHxvGXi11+BsWNNpwkt1xbdBQv4bNnSbA4RCY/Jk/ki7eOP+R2tV7i2vRATw90LaWkc6ygi3jNiBPDkk8CsWcDf/mY6TWi4tuhGRnIs3L59ppOISLicOwdUrsyB54cO8SCU27myvbB4MecteO2tpohcKjKSl1impvK2CS9w5Uq3c2dgwgTg66+Be+81nUZEwikYBIoUYSvxwAGgWDHTiXLHlSvdhQt5RtsrPR4RubxAABg8GDh/3htTyFy30g0GeRCidm3gxx9NpxERu5QuzZXu9u28D9GtXLfS3bCB/Z1evUwnERE7jRnDq9tHjDCdJHdcV3Q//ZTP5s3N5hARe7VpA3TqBIwc6e5dS65rL5QqBRw/Dpw5YzqJiNht+3ZOIatbF1i+3HSanHHVSvfECR7/rVnTdBIRMaFaNaB6db7PWb3adJqccVXRHT+ez3vuMZtDRMwZM4bPf/zDbI6cclV7oWlTYNEiYMcOoGpV02lExJRatYCtW4EVKzji1U1cVXSLFuVevRMnTCcREZMSE4HGjYE6dYD1602nyR7XtBdOnABOngQ6djSdRERMu/12ztvdvJnjH93ENUV38WKuch9+2HQSEXGCjO2jb7xhNkd2uabovvceRzg2aGA6iYg4QZUqHIYzapS7to+5oqcbDAL58/Oq9cOHTacREafIuNYnNhZISjKdJmtcsdKdNYtzNXVLhIhcLD4euP56YONG96x2XVF033+fz/79zeYQEef56CM+H3vMbI6sckV7oWBBDrrQVjERyUxMDLBlC7ByJXDrrabTXJnjV7pbtwKnTnFPnohIZkaP5sLsww9NJ7k6xxfduXP5HDbMbA4Rca7GjYEuXYBJk4D9+02nuTLHtxeaNOGFdBs3mk4iIk62fTuHYbVoAcybZzrN5Tl6pbttGw9FVKtmOomIOF21aty7++23zl6kObrovvkmn/ffbzaHiLjDBx/w6eQJZI5uL5Qty/m5Z8/ycjoRkaupUgXYtYu7GWrVMp3mzxxbyg4cYEP8hhtUcEUk64YP57NrV7M5Lsex5WzIED47dzabQ0TcpXVr3ha8apUzxwY4tuhu3QoUKAA8/rjpJCLiNl9/zdEBGYs3J3Fk0T17ljdEPPAAB92IiGRHbCwnkA0bBmzYYDrNpRxZdMeO5Y2/rVqZTiIibvXoo1zAdepkOsmlHLl7ITYW2LSJ/ZhixUynERG3qlmT+/1//JHXtjuB44puSgoQHQ2UK+e+azhExFmWLOHVPhnjH53Ace2F/v0BywJ69zadRETcrlGjC985L15sOg05aqUbDPJ2iPR04PRp7c8VkdxbuRKoVw+4+27gm29Mp3HYSnfuXI5xbNdOBVdEQiMujt85z53LraimOWql++CDwOzZQHKyXqCJSOj89htQtSpfpi1aZDaLY9aTP/0ETJsGdOumgisioVW6NG+UWLwY+Owzs1kcs9Jt3BhITATWrQNuvNF0GhHxmuRkjn8sWBA4ehTIm9dMDkesdFNSuLWjdGkVXBEJj6pVebvEiRNmL7F0RNHN2CbWr5/pJCLiZWPGcIfU+PG8acIE4+0FbRMTETtNm8aLERISgClT7P984yVuwgRtExMR+3TsCPTpwxdqK1bY//nGV7oJCcCsWcDPPwNlyphMIiJ+cfw4UKMGX6bt3Anky2ffZxtdWy5aBEyfDvTooYIrIvYpWpSjY/fts/+iBGMr3d27uX2jcGFgxw4OuRERsUswCBQvzlXv+vW8GswORla6wSD35aanA4MHq+CKiP0CAWDiRO6cio/nvYy2fK49H3Opnj15W2ezZrqOR0TMadUKGDCAe3fr1uUVP+Fme3th3jzgrrvYUzlwwN4GtohIZnr2BEaPBh55BBg3Lrw7qWw9CHfmDH9yERHAd9+p4IqIM3z4IVC+PPDSS8CRI9xRFS62theee47bM6ZMcc7VGSIiAPDCC0CTJpy5G877GcNedNPTgUGDODls2DDgiSe4VUNExEkyvgOvWJGFd9iw8HxO2NoLR49eOPVx9ix7JB06AO+8E65PFBHJnchIICmJ753KlQvPZ4TlRdo33/BY79mzQIEC3Hw8ZAhQqFCoP0lEJPQsiyvfcAjLSrd6dV6R0aEDV7uaqSAibhKuggs4YPaCiIifaA0qImIjFV0RERup6IqI2EhFV0TERiq6IiI2UtEVEbGRiq6IiI1UdEVEbKSiKyJiIxVdEREbqeiKiNhIRVdExEYquiIiNlLRFRGxkYquiIiN/g+yxqRlMUP81wAAAABJRU5ErkJggg==;imageBorder=default;" vertex="1" parent="1">
          <mxGeometry x="60" y="290" width="105.76" height="70" as="geometry" />
        </mxCell>
      </root>
    </mxGraphModel>
  </diagram>
</mxfile>
